Poster..........: http://www.shotpix.com/images/76935785024460760947.jpg

Release Name....: The.Sapphires.2012.BDRip.XviD-Acesn8s	 

Theatre.Date....: 8 August 2012  
Ratings.........: 7.1/10 from 1,259 users   
Genre...........: Comedy | Drama | Musical  
Duration........: 1h 43 mn
Subs............: English (.srt file)
Sample..........: Yes
PS3.............: Don't Care

General Info

Release name                             : The.Sapphires.2012.BDRip.XviD-Acesn8s
Format                                   : AVI
Format/Info                              : Audio Video Interleave
File size                                : 699 MiB
Duration                                 : 1h 43mn
Overall bit rate                         : 946 Kbps
Writing library                          : VirtualDub build 32842/release

Video
ID                                       : 0
Format                                   : MPEG-4 Visual
Format profile                           : Simple@L1
Format settings, BVOP                    : No
Format settings, QPel                    : No
Format settings, GMC                     : No warppoints
Format settings, Matrix                  : Default (H.263)
Codec ID                                 : XVID
Codec ID/Hint                            : XviD
Duration                                 : 1h 43mn
Bit rate                                 : 808 Kbps
Width                                    : 640 pixels
Height                                   : 272 pixels
Display aspect ratio                     : 16:9
Frame rate                               : 24.000 fps
Color space                              : YUV
Chroma subsampling                       : 4:2:0
Bit depth                                : 8 bits
Scan type                                : Progressive
Compression mode                         : Lossy
Bits/(Pixel*Frame)                       : 0.193
Stream size                              : 598 MiB (85%)
Writing library                          : XviD 64

Audio
ID                                       : 1
Format                                   : MPEG Audio
Format version                           : Version 1
Format profile                           : Layer 3
Mode                                     : Joint stereo
Mode extension                           : MS Stereo
Codec ID                                 : 55
Codec ID/Hint                            : MP3
Duration                                 : 1h 43mn
Bit rate mode                            : Constant
Bit rate                                 : 128 Kbps
Channel(s)                               : 2 channels
Sampling rate                            : 48.0 KHz
Compression mode                         : Lossy
Stream size                              : 94.7 MiB (14%)
Alignment                                : Split accross interleaves
Interleave, duration                     : 42 ms (1.00 video frame)
Interleave, preload duration             : 500 ms
Writing library                          : LAME3.99.5
source                                   : Blu-ray PFa
 
http://www.imdb.com/title/tt1673697/

Actors: Chris O'Dowd, Deborah Mailman and Jessica Mauboy

Plot: It's 1968, and four young, talented Australian Aboriginal girls learn about love, friendship and war when their all girl group The Sapphires entertain the US troops in Vietnam.  


Screens:
 
http://www.shotpix.com/images/30422227228294155810.jpg
 
http://www.shotpix.com/images/95317561685800244549.jpg
 
http://www.shotpix.com/images/18955220133743599167.jpg
 
http://www.shotpix.com/images/19021151808728457952.jpg
 
http://www.shotpix.com/images/01980119268307299758.jpg